<?xml version="1.0" encoding="UTF-8" standalone="no"?>
<svg
   xmlns:dc="http://purl.org/dc/elements/1.1/"
   xmlns:cc="http://creativecommons.org/ns#"
   xmlns:rdf="http://www.w3.org/1999/02/22-rdf-syntax-ns#"
   xmlns:svg="http://www.w3.org/2000/svg"
   xmlns="http://www.w3.org/2000/svg"
   xmlns:xlink="http://www.w3.org/1999/xlink"
   xmlns:sodipodi="http://sodipodi.sourceforge.net/DTD/sodipodi-0.dtd"
   xmlns:inkscape="http://www.inkscape.org/namespaces/inkscape"
   width="132.004"
   height="132"
   version="1.1"
   id="svg4597"
   sodipodi:docname="logo2.svg"
   inkscape:version="1.0.2 (e86c870879, 2021-01-15)"
   inkscape:export-filename="/home/shadoy/Dropbox/blowup/logo2-16.png"
   inkscape:export-xdpi="11.813959"
   inkscape:export-ydpi="11.813959">
  <metadata
     id="metadata4601">
    <rdf:RDF>
      <cc:Work
         rdf:about="">
        <dc:format>image/svg+xml</dc:format>
        <dc:type
           rdf:resource="http://purl.org/dc/dcmitype/StillImage" />
        <dc:title></dc:title>
      </cc:Work>
    </rdf:RDF>
  </metadata>
  <sodipodi:namedview
     pagecolor="#ffffff"
     bordercolor="#666666"
     borderopacity="1"
     objecttolerance="10"
     gridtolerance="10"
     guidetolerance="10"
     inkscape:pageopacity="0"
     inkscape:pageshadow="2"
     inkscape:window-width="1920"
     inkscape:window-height="1027"
     id="namedview4599"
     showgrid="false"
     inkscape:zoom="0.5"
     inkscape:cx="-112.91873"
     inkscape:cy="-129.77947"
     inkscape:window-x="0"
     inkscape:window-y="701"
     inkscape:window-maximized="1"
     inkscape:current-layer="svg4597"
     inkscape:snap-global="true"
     inkscape:document-rotation="0"
     inkscape:snap-bbox="false" />
  <defs
     id="defs4589">
    <linearGradient
       id="b">
      <stop
         offset="0"
         stop-color="#3771c8"
         id="stop4571" />
      <stop
         stop-color="#3771c8"
         offset=".128"
         id="stop4573" />
      <stop
         offset="1"
         stop-color="#60f"
         stop-opacity="0"
         id="stop4575" />
    </linearGradient>
    <linearGradient
       id="a">
      <stop
         offset="0"
         stop-color="#fd5"
         id="stop4578"
         style="stop-color:#0022aa" />
      <stop
         offset=".1"
         stop-color="#fd5"
         id="stop4580"
         style="stop-color:#0022aa" />
      <stop
         offset=".5"
         stop-color="#ff543e"
         id="stop4582"
         style="stop-color:#00abc1" />
      <stop
         offset="1"
         stop-color="#c837ab"
         id="stop4584"
         style="stop-color:#37c854" />
    </linearGradient>
    <radialGradient
       id="c"
       cx="158.429"
       cy="578.08801"
       r="65"
       xlink:href="#a"
       gradientUnits="userSpaceOnUse"
       gradientTransform="matrix(0,-1.98198,1.8439,0,-1031.402,454.004)"
       fx="158.429"
       fy="578.08801" />
    <radialGradient
       id="d"
       cx="310.65231"
       cy="476.59122"
       r="65"
       xlink:href="#b"
       gradientUnits="userSpaceOnUse"
       gradientTransform="matrix(-0.17394,-0.86872,3.5818,-0.71718,-1517.2284,589.45533)"
       fx="310.65231"
       fy="476.59122" />
  </defs>
  <path
     fill="url(#c)"
     d="M65.03 0C37.888 0 29.95.028 28.407.156c-5.57.463-9.036 1.34-12.812 3.22-2.91 1.445-5.205 3.12-7.47 5.468C4 13.126 1.5 18.394.595 24.656c-.44 3.04-.568 3.66-.594 19.188-.01 5.176 0 11.988 0 21.125 0 27.12.03 35.05.16 36.59.45 5.42 1.3 8.83 3.1 12.56 3.44 7.14 10.01 12.5 17.75 14.5 2.68.69 5.64 1.07 9.44 1.25 1.61.07 18.02.12 34.44.12 16.42 0 32.84-.02 34.41-.1 4.4-.207 6.955-.55 9.78-1.28 7.79-2.01 14.24-7.29 17.75-14.53 1.765-3.64 2.66-7.18 3.065-12.317.088-1.12.125-18.977.125-36.81 0-17.836-.04-35.66-.128-36.78-.41-5.22-1.305-8.73-3.127-12.44-1.495-3.037-3.155-5.305-5.565-7.624C116.9 4 111.64 1.5 105.372.596 102.335.157 101.73.027 86.19 0H65.03z"
     id="path4591"
     style="fill-opacity:1.0"
     transform="translate(1.004 1)" />
  <path
     d="m 66.089543,130.96234 c 27.14201,0 35.080007,-0.028 36.622997,-0.156 5.57,-0.463 9.036,-1.34 12.812,-3.22 2.91,-1.445 5.205,-3.12 7.47,-5.468 4.125,-4.282 6.625,-9.55 7.53,-15.812 0.44,-3.04 0.568,-3.66 0.594,-19.188013 0.01,-5.176 0,-11.988 0,-21.125 0,-27.12 -0.03,-35.05001 -0.16,-36.59001 -0.45,-5.42 -1.3,-8.83 -3.1,-12.56 -3.44,-7.1399995 -10.01,-12.4999991 -17.75,-14.4999991 -2.68,-0.69 -5.64,-1.07 -9.43999,-1.25 -1.609997,-0.07 -18.019997,-0.12 -34.440007,-0.12 -16.42,0 -32.84,0.02 -34.40999,0.1 -4.4,0.207 -6.955,0.55 -9.78,1.28 -7.79,2.01 -14.2400005,7.2899999 -17.7500005,14.5299991 -1.765,3.64 -2.6599999,7.18 -3.065,12.317 -0.088,1.12 -0.1249999,18.97701 -0.1249999,36.81001 0,17.836 0.04,35.660003 0.1279999,36.780013 0.4100001,5.22 1.305,8.73 3.127,12.44 1.495,3.037 3.155,5.305 5.5650002,7.624 4.3010003,4.108 9.5610003,6.608 15.8290003,7.512 3.037,0.439 3.642,0.569 19.18199,0.596 z"
     id="path4593"
     fill="url(#d)"
     style="fill:url(#d);fill-opacity:1" />
  <path
     d="m 66.004,18 c -13.036,0 -14.672,0.057 -19.792,0.29 -5.11,0.234 -8.598,1.043 -11.65,2.23 -3.157,1.226 -5.835,2.866 -8.503,5.535 -2.67,2.668 -4.31,5.346 -5.54,8.502 -1.19,3.053 -2,6.542 -2.23,11.65 C 18.06,51.327 18,52.964 18,66 c 0,13.036 0.058,14.667 0.29,19.787 0.235,5.11 1.044,8.598 2.23,11.65 1.227,3.157 2.867,5.835 5.536,8.503 2.667,2.67 5.345,4.314 8.5,5.54 3.054,1.187 6.543,1.996 11.652,2.23 5.12,0.233 6.755,0.29 19.79,0.29 13.037,0 14.668,-0.057 19.788,-0.29 5.11,-0.234 8.602,-1.043 11.656,-2.23 3.156,-1.226 5.83,-2.87 8.497,-5.54 2.67,-2.668 4.31,-5.346 5.54,-8.502 1.18,-3.053 1.99,-6.542 2.23,-11.65 0.23,-5.12 0.29,-6.752 0.29,-19.788 0,-13.036 -0.06,-14.672 -0.29,-19.792 -0.24,-5.11 -1.05,-8.598 -2.23,-11.65 -1.23,-3.157 -2.87,-5.835 -5.54,-8.503 -2.67,-2.67 -5.34,-4.31 -8.5,-5.535 -3.06,-1.187 -6.55,-1.996 -11.66,-2.23 C 80.659,18.057 79.029,18 65.989,18 Z m -4.306,8.65 c 1.278,-0.002 2.704,0 4.306,0 12.816,0 14.335,0.046 19.396,0.276 4.68,0.214 7.22,0.996 8.912,1.653 2.24,0.87 3.837,1.91 5.516,3.59 1.68,1.68 2.72,3.28 3.592,5.52 0.657,1.69 1.44,4.23 1.653,8.91 0.23,5.06 0.28,6.58 0.28,19.39 0,12.81 -0.05,14.33 -0.28,19.39 -0.214,4.68 -0.996,7.22 -1.653,8.91 -0.87,2.24 -1.912,3.835 -3.592,5.514 -1.68,1.68 -3.275,2.72 -5.516,3.59 -1.69,0.66 -4.232,1.44 -8.912,1.654 -5.06,0.23 -6.58,0.28 -19.396,0.28 -12.817,0 -14.336,-0.05 -19.396,-0.28 -4.68,-0.216 -7.22,-0.998 -8.913,-1.655 -2.24,-0.87 -3.84,-1.91 -5.52,-3.59 -1.68,-1.68 -2.72,-3.276 -3.592,-5.517 -0.657,-1.69 -1.44,-4.23 -1.653,-8.91 -0.23,-5.06 -0.276,-6.58 -0.276,-19.398 0,-12.818 0.046,-14.33 0.276,-19.39 0.214,-4.68 0.996,-7.22 1.653,-8.912 0.87,-2.24 1.912,-3.84 3.592,-5.52 1.68,-1.68 3.28,-2.72 5.52,-3.592 1.692,-0.66 4.233,-1.44 8.913,-1.655 4.428,-0.2 6.144,-0.26 15.09,-0.27 z m 29.928,7.97 c -3.18,0 -5.76,2.577 -5.76,5.758 0,3.18 2.58,5.76 5.76,5.76 3.18,0 5.76,-2.58 5.76,-5.76 0,-3.18 -2.58,-5.76 -5.76,-5.76 z m -25.622,6.73 c -13.613,0 -24.65,11.037 -24.65,24.65 0,13.613 11.037,24.645 24.65,24.645 C 79.617,90.645 90.65,79.613 90.65,66 90.65,52.387 79.616,41.35 66.003,41.35 Z m 0,8.65 c 8.836,0 16,7.163 16,16 0,8.836 -7.164,16 -16,16 -8.837,0 -16,-7.164 -16,-16 0,-8.837 7.163,-16 16,-16 z"
     id="path4595"
     inkscape:connector-curvature="0"
     style="fill:none;fill-opacity:1"
     sodipodi:nodetypes="ccccccscccccscccccsccccccccscccccscccccsccsccsccscccccssscccsssccsssss" />
  <path
     inkscape:connector-curvature="0"
     d="m 73.508801,20.277291 a 6.4681217,6.4681217 0 1 0 0,12.936243 H 90.235365 L 49.531475,73.917422 A 6.4681214,6.4681214 0 1 0 58.6774,83.063346 L 99.381285,42.359457 V 59.08602 a 6.468128,6.468128 0 1 0 12.936245,0 V 26.745412 a 6.4681214,6.4681214 0 0 0 -6.46812,-6.468121 z"
     id="path4634"
     style="fill:#ffffff;fill-opacity:1;stroke-width:6.46812105" />
  <path
     inkscape:connector-curvature="0"
     d="m 34.700075,33.213534 c -7.14449,0 -12.936243,5.791753 -12.936244,12.936242 v 51.744979 c 6e-6,7.144475 5.791757,12.936225 12.936244,12.936225 h 51.74497 c 7.144484,0 12.93623,-5.79175 12.93624,-12.936225 V 78.490384 c 0.003,-3.574177 -2.893946,-6.473061 -6.46812,-6.473061 -3.574175,0 -6.470852,2.898884 -6.46812,6.473061 V 97.894755 H 34.700075 V 46.149776 h 19.404364 c 3.571282,-0.0013 6.465647,-2.896841 6.465647,-6.468122 0,-3.571279 -2.894365,-6.466755 -6.465647,-6.46812 z"
     id="path4636"
     style="fill:#ffffff;fill-opacity:1;stroke-width:6.46812105"
     sodipodi:nodetypes="ssscsscscccccscs" />
</svg>
